<svg xmlns="http://www.w3.org/2000/svg" width="85" height="47" fill="none" viewBox="0 0 85 47">
  <rect width="84.172" height="39.08" x=".558" y="7.567" fill="#8E8C8C" rx="3"/>
  <path fill="#1B150F" d="M71.972 43.327a3 3 0 0 1-2.508-3.473l5.872-34.287c.36-2.097 2.727-3.165 4.536-2.045l2.686 1.663a3 3 0 0 1 1.42 2.55v33.92a3 3 0 0 1-3.448 2.967l-8.558-1.295Zm-57.896-.017a3 3 0 0 0 2.505-3.468l-5.88-34.625c-.357-2.104-2.735-3.173-4.546-2.043L3.473 4.85A3 3 0 0 0 2.06 7.394v34.257a3 3 0 0 0 3.453 2.966l8.563-1.307Z"/>
  <path fill="#292827" d="M5.93 32.252a3 3 0 0 1 2.873-2.139h68.756a3 3 0 0 1 2.892 2.205l2.484 9.03a3 3 0 0 1-2.893 3.796H6.093a3 3 0 0 1-2.873-3.862l2.71-9.03Z"/>
  <path fill="#3D3D3D" d="M7.322 6.307a4 4 0 0 1 4-4h64.899a4 4 0 0 1 4 4v21.31a4 4 0 0 1-4 4H11.322a4 4 0 0 1-4-4V6.307Z"/>
</svg>
