<svg xmlns="http://www.w3.org/2000/svg" width="85" height="47" fill="none" viewBox="0 0 85 47">
  <rect width="84.172" height="39.08" x=".558" y="7.724" fill="#8E8C8C" rx="3"/>
  <path fill="#671A1A" d="M71.972 43.483a3 3 0 0 1-2.508-3.472l5.872-34.288c.36-2.097 2.727-3.164 4.536-2.044l2.686 1.662a3 3 0 0 1 1.42 2.551v33.92a3 3 0 0 1-3.448 2.967l-8.558-1.296Zm-57.896-.017a3 3 0 0 0 2.505-3.468l-5.88-34.625C10.345 3.27 7.967 2.2 6.156 3.331L3.473 5.006A3 3 0 0 0 2.06 7.55v34.257a3 3 0 0 0 3.453 2.965l8.563-1.307Z"/>
  <path fill="#791E1E" d="M5.93 32.408a3 3 0 0 1 2.873-2.138h68.756a3 3 0 0 1 2.892 2.204l2.484 9.031a3 3 0 0 1-2.893 3.796H6.093a3 3 0 0 1-2.873-3.862l2.71-9.031Z"/>
  <path fill="#BA3232" d="M7.322 6.463a4 4 0 0 1 4-4h64.899a4 4 0 0 1 4 4v21.31a4 4 0 0 1-4 4H11.322a4 4 0 0 1-4-4V6.463Z"/>
</svg>
