<svg xmlns="http://www.w3.org/2000/svg" width="180" height="46" fill="none" viewBox="0 0 180 46">
  <rect width="178.113" height="39.08" x=".933" y="6.607" fill="#8E8C8C" rx="3"/>
  <path fill="#A05F23" d="M160.574 42.33a3 3 0 0 1-2.604-3.627l7.503-34.108a3 3 0 0 1 4.173-2.086l6.141 2.797a3.001 3.001 0 0 1 1.756 2.73v32.802a3 3 0 0 1-3.326 2.983l-13.643-1.49Z"/>
  <path fill="#7A4A1E" d="M19.395 41.596a3 3 0 0 0 2.606-3.633L14.508 4.198a3 3 0 0 0-4.163-2.084L4.2 4.89a3 3 0 0 0-1.765 2.734V40.09a3 3 0 0 0 3.323 2.983l13.636-1.477Z"/>
  <path fill="#975313" d="M9.977 30.526a3 3 0 0 1 2.52-1.373h154.327a3 3 0 0 1 2.582 1.473l5.344 9.03c1.183 2-.258 4.528-2.582 4.528H6.668c-2.376 0-3.809-2.63-2.52-4.627l5.83-9.03Z"/>
  <path fill="#F89828" d="M10.703 5.347a4 4 0 0 1 4-4h150.573a4 4 0 0 1 4 4v21.31a4 4 0 0 1-4 4H14.702a4 4 0 0 1-4-4V5.347Z"/>
</svg>
